<svg xmlns="http://www.w3.org/2000/svg" width="22" height="30"><path d="M3.34 2.522A10.45 10.45 0 017.61.036c.33.919.67 1.836 1.01 2.754a1.351 1.351 0 00.69.621c.07.693.06 1.4.18 2.083a4.066 4.066 0 001.28 2.194 3.306 3.306 0 011.22 1.778 2.9 2.9 0 01-.9 2.61.846.846 0 00-.38-.419c-.35-.165-.9-.041-.89.346-.03 1.331-.01 2.826 0 4.156-.01 4.492 0 8.9 0 13.391.03.257-.17.564-.38.4a2.7 2.7 0 01-.37-.589q-3.735-6.647-7.48-13.294a13.1 13.1 0 01-.76-1.453 10.964 10.964 0 01-.78-5.222 10.829 10.829 0 013.29-6.873m.89 5.132c.05.876.12 1.75.18 2.626a5.71 5.71 0 001.54 3.549 5.532 5.532 0 003.1 1.659v-2.749a2.846 2.846 0 01-2.48-2.613 2.388 2.388 0 00-.72-1.618 5.516 5.516 0 00-1.62-.854zm6.64-7.23a.717.717 0 01.91.679.735.735 0 01-.62.753.721.721 0 01-.77-.508.738.738 0 01.48-.924z" fill-rule="evenodd" fill="#efb007"/><path data-name="logo" d="M14.27 0a10.637 10.637 0 016.25 4.871 11.065 11.065 0 01.38 10.338q-4.11 7.3-8.22 14.611c-.11.289-.49.048-.5-.268-.01-4.771.01-9.082 0-13.853a5.913 5.913 0 001.76-10.47 1.9 1.9 0 01-.71-.632 3.054 3.054 0 01-.23-1.31 2.185 2.185 0 00.69-.641c.2-.88.38-1.766.58-2.646z" fill="#222" fill-rule="evenodd"/></svg>